# xmcd CD database file generated by OrangeCD 6.3
#
# Track frame offsets:
#	150
#	6342
#	32438
#	45385
#	65521
#	78543
#	96091
#	113974
#	132187
#	148438
#
# Disc length: 2178 seconds
#
# Revision: 0
# Processed by: cddbd v1.5.2PL0 Copyright (c) Steve Scherf et al.
# Submitted via: OrangeCD 6.3
#
DISCID=8608800a
DTITLE=Questions - eyes that hear and ears that see
DYEAR=1900
DGENRE=
TTITLE0=All I Know...
TTITLE1=Pregnant In Palenque
TTITLE2=In My Spare Time
TTITLE3=The Sun Will Rise Again
TTITLE4=Absinthe and Oysters
TTITLE5=Woman Blues
TTITLE6=Urban Loki
TTITLE7=Red White Blue
TTITLE8=The Loss Of Equilibrium
TTITLE9=Don't Have Long
EXTD=
EXTT0=
EXTT1=
EXTT2=
EXTT3=
EXTT4=
EXTT5=
EXTT6=
EXTT7=
EXTT8=
EXTT9=
PLAYORDER=
